<mxfile host="Electron" agent="Mozilla/5.0 (Windows NT 10.0; Win64; x64) AppleWebKit/537.36 (KHTML, like Gecko) draw.io/28.0.6 Chrome/138.0.7204.100 Electron/37.2.3 Safari/537.36" version="28.0.6">
  <diagram name="Page-1" id="5f0bae14-7c28-e335-631c-24af17079c00">
    <mxGraphModel dx="1895" dy="1138" grid="1" gridSize="10" guides="1" tooltips="1" connect="1" arrows="1" fold="1" page="1" pageScale="1" pageWidth="1100" pageHeight="850" background="none" math="0" shadow="0">
      <root>
        <mxCell id="0" />
        <mxCell id="1" parent="0" />
        <mxCell id="0Neg9aX6jyYpq-vdObrH-27" value="Creditos" style="rounded=0;whiteSpace=wrap;html=1;" parent="1" vertex="1">
          <mxGeometry x="630" y="60" width="120" height="60" as="geometry" />
        </mxCell>
        <mxCell id="0Neg9aX6jyYpq-vdObrH-35" style="edgeStyle=orthogonalEdgeStyle;rounded=0;orthogonalLoop=1;jettySize=auto;html=1;exitX=0;exitY=0.25;exitDx=0;exitDy=0;entryX=0.75;entryY=1;entryDx=0;entryDy=0;" parent="1" source="0Neg9aX6jyYpq-vdObrH-28" target="0Neg9aX6jyYpq-vdObrH-30" edge="1">
          <mxGeometry relative="1" as="geometry" />
        </mxCell>
        <mxCell id="0Neg9aX6jyYpq-vdObrH-41" value="Respuesta" style="edgeLabel;html=1;align=center;verticalAlign=middle;resizable=0;points=[];" parent="0Neg9aX6jyYpq-vdObrH-35" vertex="1" connectable="0">
          <mxGeometry x="-0.3924" y="-2" relative="1" as="geometry">
            <mxPoint as="offset" />
          </mxGeometry>
        </mxCell>
        <mxCell id="0Neg9aX6jyYpq-vdObrH-28" value="Cuentas" style="rounded=0;whiteSpace=wrap;html=1;" parent="1" vertex="1">
          <mxGeometry x="630" y="280" width="120" height="60" as="geometry" />
        </mxCell>
        <mxCell id="0Neg9aX6jyYpq-vdObrH-36" style="edgeStyle=orthogonalEdgeStyle;rounded=0;orthogonalLoop=1;jettySize=auto;html=1;exitX=1;exitY=0.25;exitDx=0;exitDy=0;entryX=0;entryY=0.25;entryDx=0;entryDy=0;" parent="1" source="0Neg9aX6jyYpq-vdObrH-29" target="0Neg9aX6jyYpq-vdObrH-30" edge="1">
          <mxGeometry relative="1" as="geometry" />
        </mxCell>
        <mxCell id="0Neg9aX6jyYpq-vdObrH-38" value="Solicitud" style="edgeLabel;html=1;align=center;verticalAlign=middle;resizable=0;points=[];" parent="0Neg9aX6jyYpq-vdObrH-36" vertex="1" connectable="0">
          <mxGeometry x="-0.055" y="1" relative="1" as="geometry">
            <mxPoint as="offset" />
          </mxGeometry>
        </mxCell>
        <mxCell id="0Neg9aX6jyYpq-vdObrH-29" value="Clientes" style="rounded=0;whiteSpace=wrap;html=1;" parent="1" vertex="1">
          <mxGeometry x="230" y="160" width="120" height="60" as="geometry" />
        </mxCell>
        <mxCell id="0Neg9aX6jyYpq-vdObrH-31" style="edgeStyle=orthogonalEdgeStyle;rounded=0;orthogonalLoop=1;jettySize=auto;html=1;exitX=0.25;exitY=0;exitDx=0;exitDy=0;entryX=0;entryY=0.25;entryDx=0;entryDy=0;" parent="1" source="0Neg9aX6jyYpq-vdObrH-30" target="0Neg9aX6jyYpq-vdObrH-27" edge="1">
          <mxGeometry relative="1" as="geometry" />
        </mxCell>
        <mxCell id="0Neg9aX6jyYpq-vdObrH-42" value="Solicitud" style="edgeLabel;html=1;align=center;verticalAlign=middle;resizable=0;points=[];" parent="0Neg9aX6jyYpq-vdObrH-31" vertex="1" connectable="0">
          <mxGeometry x="-0.2173" y="2" relative="1" as="geometry">
            <mxPoint as="offset" />
          </mxGeometry>
        </mxCell>
        <mxCell id="0Neg9aX6jyYpq-vdObrH-33" style="edgeStyle=orthogonalEdgeStyle;rounded=0;orthogonalLoop=1;jettySize=auto;html=1;exitX=0.25;exitY=1;exitDx=0;exitDy=0;entryX=0;entryY=0.75;entryDx=0;entryDy=0;" parent="1" source="0Neg9aX6jyYpq-vdObrH-30" target="0Neg9aX6jyYpq-vdObrH-28" edge="1">
          <mxGeometry relative="1" as="geometry" />
        </mxCell>
        <mxCell id="0Neg9aX6jyYpq-vdObrH-40" value="Solicitud" style="edgeLabel;html=1;align=center;verticalAlign=middle;resizable=0;points=[];" parent="0Neg9aX6jyYpq-vdObrH-33" vertex="1" connectable="0">
          <mxGeometry x="0.3076" y="1" relative="1" as="geometry">
            <mxPoint as="offset" />
          </mxGeometry>
        </mxCell>
        <mxCell id="0Neg9aX6jyYpq-vdObrH-37" style="edgeStyle=orthogonalEdgeStyle;rounded=0;orthogonalLoop=1;jettySize=auto;html=1;exitX=0;exitY=0.75;exitDx=0;exitDy=0;entryX=1;entryY=0.75;entryDx=0;entryDy=0;" parent="1" source="0Neg9aX6jyYpq-vdObrH-30" target="0Neg9aX6jyYpq-vdObrH-29" edge="1">
          <mxGeometry relative="1" as="geometry" />
        </mxCell>
        <mxCell id="0Neg9aX6jyYpq-vdObrH-39" value="Respuesta" style="edgeLabel;html=1;align=center;verticalAlign=middle;resizable=0;points=[];" parent="0Neg9aX6jyYpq-vdObrH-37" vertex="1" connectable="0">
          <mxGeometry x="-0.17" relative="1" as="geometry">
            <mxPoint as="offset" />
          </mxGeometry>
        </mxCell>
        <mxCell id="0Neg9aX6jyYpq-vdObrH-30" value="Transacciones" style="rounded=0;whiteSpace=wrap;html=1;" parent="1" vertex="1">
          <mxGeometry x="430" y="160" width="120" height="60" as="geometry" />
        </mxCell>
        <mxCell id="0Neg9aX6jyYpq-vdObrH-32" style="edgeStyle=orthogonalEdgeStyle;rounded=0;orthogonalLoop=1;jettySize=auto;html=1;exitX=0;exitY=0.75;exitDx=0;exitDy=0;entryX=0.67;entryY=0.053;entryDx=0;entryDy=0;entryPerimeter=0;" parent="1" source="0Neg9aX6jyYpq-vdObrH-27" target="0Neg9aX6jyYpq-vdObrH-30" edge="1">
          <mxGeometry relative="1" as="geometry" />
        </mxCell>
        <mxCell id="0Neg9aX6jyYpq-vdObrH-43" value="Respuesta" style="edgeLabel;html=1;align=center;verticalAlign=middle;resizable=0;points=[];" parent="0Neg9aX6jyYpq-vdObrH-32" vertex="1" connectable="0">
          <mxGeometry x="0.0485" y="1" relative="1" as="geometry">
            <mxPoint as="offset" />
          </mxGeometry>
        </mxCell>
        <mxCell id="YY5OX-XtTpoiUtHUCdW3-1" value="Diagrama del Sistema General" style="text;html=1;align=center;verticalAlign=middle;resizable=0;points=[];autosize=1;strokeColor=none;fillColor=none;fontSize=20;fontStyle=1" vertex="1" parent="1">
          <mxGeometry x="396" y="10" width="300" height="40" as="geometry" />
        </mxCell>
        <mxCell id="YY5OX-XtTpoiUtHUCdW3-2" value="Diagrama de Secuencia de Microservicio" style="text;html=1;align=center;verticalAlign=middle;resizable=0;points=[];autosize=1;strokeColor=none;fillColor=none;fontSize=20;fontStyle=1" vertex="1" parent="1">
          <mxGeometry x="355" y="365" width="390" height="40" as="geometry" />
        </mxCell>
        <mxCell id="YY5OX-XtTpoiUtHUCdW3-10" value=":Client-M" style="shape=umlLifeline;whiteSpace=wrap;html=1;container=0;dropTarget=0;collapsible=0;recursiveResize=0;outlineConnect=0;portConstraint=eastwest;newEdgeStyle={&quot;edgeStyle&quot;:&quot;elbowEdgeStyle&quot;,&quot;elbow&quot;:&quot;vertical&quot;,&quot;curved&quot;:0,&quot;rounded&quot;:0};rounded=0;participant=label;perimeter=rectanglePerimeter;" vertex="1" parent="1">
          <mxGeometry x="104" y="440" width="100" height="1190" as="geometry" />
        </mxCell>
        <mxCell id="YY5OX-XtTpoiUtHUCdW3-14" value=":TransactionService" style="shape=umlLifeline;perimeter=lifelinePerimeter;whiteSpace=wrap;html=1;container=0;dropTarget=0;collapsible=0;recursiveResize=0;outlineConnect=0;portConstraint=eastwest;newEdgeStyle={&quot;edgeStyle&quot;:&quot;elbowEdgeStyle&quot;,&quot;elbow&quot;:&quot;vertical&quot;,&quot;curved&quot;:0,&quot;rounded&quot;:0};" vertex="1" parent="1">
          <mxGeometry x="411" y="440" width="110" height="1190" as="geometry" />
        </mxCell>
        <mxCell id="YY5OX-XtTpoiUtHUCdW3-16" value="transactionsGet()" style="html=1;verticalAlign=bottom;endArrow=block;edgeStyle=elbowEdgeStyle;elbow=vertical;curved=0;rounded=0;exitX=0.495;exitY=0.262;exitDx=0;exitDy=0;exitPerimeter=0;" edge="1" parent="1">
          <mxGeometry relative="1" as="geometry">
            <mxPoint x="310.00000000000006" y="549" as="sourcePoint" />
            <Array as="points" />
            <mxPoint x="465.5000000000001" y="549.0769230769231" as="targetPoint" />
          </mxGeometry>
        </mxCell>
        <mxCell id="YY5OX-XtTpoiUtHUCdW3-22" value=":TransactionController" style="shape=umlLifeline;perimeter=lifelinePerimeter;whiteSpace=wrap;html=1;container=0;dropTarget=0;collapsible=0;recursiveResize=0;outlineConnect=0;portConstraint=eastwest;newEdgeStyle={&quot;edgeStyle&quot;:&quot;elbowEdgeStyle&quot;,&quot;elbow&quot;:&quot;vertical&quot;,&quot;curved&quot;:0,&quot;rounded&quot;:0};" vertex="1" parent="1">
          <mxGeometry x="250" y="440" width="120" height="1190" as="geometry" />
        </mxCell>
        <mxCell id="YY5OX-XtTpoiUtHUCdW3-24" value=":TransactionMapper" style="shape=umlLifeline;perimeter=lifelinePerimeter;whiteSpace=wrap;html=1;container=0;dropTarget=0;collapsible=0;recursiveResize=0;outlineConnect=0;portConstraint=eastwest;newEdgeStyle={&quot;edgeStyle&quot;:&quot;elbowEdgeStyle&quot;,&quot;elbow&quot;:&quot;vertical&quot;,&quot;curved&quot;:0,&quot;rounded&quot;:0};" vertex="1" parent="1">
          <mxGeometry x="715" y="440" width="125" height="1190" as="geometry" />
        </mxCell>
        <mxCell id="YY5OX-XtTpoiUtHUCdW3-28" value=":Account-M" style="shape=umlLifeline;perimeter=lifelinePerimeter;whiteSpace=wrap;html=1;container=0;dropTarget=0;collapsible=0;recursiveResize=0;outlineConnect=0;portConstraint=eastwest;newEdgeStyle={&quot;edgeStyle&quot;:&quot;elbowEdgeStyle&quot;,&quot;elbow&quot;:&quot;vertical&quot;,&quot;curved&quot;:0,&quot;rounded&quot;:0};" vertex="1" parent="1">
          <mxGeometry x="1140" y="430" width="100" height="300" as="geometry" />
        </mxCell>
        <mxCell id="YY5OX-XtTpoiUtHUCdW3-29" value="" style="html=1;points=[];perimeter=orthogonalPerimeter;outlineConnect=0;targetShapes=umlLifeline;portConstraint=eastwest;newEdgeStyle={&quot;edgeStyle&quot;:&quot;elbowEdgeStyle&quot;,&quot;elbow&quot;:&quot;vertical&quot;,&quot;curved&quot;:0,&quot;rounded&quot;:0};" vertex="1" parent="YY5OX-XtTpoiUtHUCdW3-28">
          <mxGeometry x="45" y="70" width="10" height="190" as="geometry" />
        </mxCell>
        <mxCell id="YY5OX-XtTpoiUtHUCdW3-34" value=":Credit-M" style="shape=umlLifeline;perimeter=lifelinePerimeter;whiteSpace=wrap;html=1;container=0;dropTarget=0;collapsible=0;recursiveResize=0;outlineConnect=0;portConstraint=eastwest;newEdgeStyle={&quot;edgeStyle&quot;:&quot;elbowEdgeStyle&quot;,&quot;elbow&quot;:&quot;vertical&quot;,&quot;curved&quot;:0,&quot;rounded&quot;:0};" vertex="1" parent="1">
          <mxGeometry x="1270" y="430" width="100" height="300" as="geometry" />
        </mxCell>
        <mxCell id="YY5OX-XtTpoiUtHUCdW3-35" value="" style="html=1;points=[];perimeter=orthogonalPerimeter;outlineConnect=0;targetShapes=umlLifeline;portConstraint=eastwest;newEdgeStyle={&quot;edgeStyle&quot;:&quot;elbowEdgeStyle&quot;,&quot;elbow&quot;:&quot;vertical&quot;,&quot;curved&quot;:0,&quot;rounded&quot;:0};" vertex="1" parent="YY5OX-XtTpoiUtHUCdW3-34">
          <mxGeometry x="45" y="70" width="10" height="190" as="geometry" />
        </mxCell>
        <mxCell id="YY5OX-XtTpoiUtHUCdW3-12" value="" style="html=1;verticalAlign=bottom;startArrow=oval;endArrow=block;startSize=8;edgeStyle=elbowEdgeStyle;elbow=horizontal;curved=0;rounded=0;" edge="1" parent="1">
          <mxGeometry relative="1" as="geometry">
            <mxPoint x="153.75925925925924" y="535" as="sourcePoint" />
            <mxPoint x="310" y="535" as="targetPoint" />
            <Array as="points">
              <mxPoint x="244" y="535" />
              <mxPoint x="334" y="481" />
            </Array>
          </mxGeometry>
        </mxCell>
        <mxCell id="YY5OX-XtTpoiUtHUCdW3-21" value="GET:&amp;nbsp; api/v1/transactions" style="edgeLabel;html=1;align=center;verticalAlign=middle;resizable=0;points=[];" vertex="1" connectable="0" parent="YY5OX-XtTpoiUtHUCdW3-12">
          <mxGeometry x="-0.0028" y="-3" relative="1" as="geometry">
            <mxPoint x="-5" y="-13" as="offset" />
          </mxGeometry>
        </mxCell>
        <mxCell id="YY5OX-XtTpoiUtHUCdW3-39" value=":TransactionRepository" style="shape=umlLifeline;perimeter=lifelinePerimeter;whiteSpace=wrap;html=1;container=0;dropTarget=0;collapsible=0;recursiveResize=0;outlineConnect=0;portConstraint=eastwest;newEdgeStyle={&quot;edgeStyle&quot;:&quot;elbowEdgeStyle&quot;,&quot;elbow&quot;:&quot;vertical&quot;,&quot;curved&quot;:0,&quot;rounded&quot;:0};" vertex="1" parent="1">
          <mxGeometry x="559" y="440" width="125" height="1190" as="geometry" />
        </mxCell>
        <mxCell id="YY5OX-XtTpoiUtHUCdW3-41" value="findAll()" style="html=1;verticalAlign=bottom;endArrow=block;edgeStyle=elbowEdgeStyle;elbow=vertical;curved=0;rounded=0;exitX=0.495;exitY=0.262;exitDx=0;exitDy=0;exitPerimeter=0;" edge="1" parent="1">
          <mxGeometry relative="1" as="geometry">
            <mxPoint x="466" y="560" as="sourcePoint" />
            <Array as="points" />
            <mxPoint x="620.9999999999998" y="559.6521739130435" as="targetPoint" />
          </mxGeometry>
        </mxCell>
        <mxCell id="YY5OX-XtTpoiUtHUCdW3-42" value=":TransactionCollection" style="shape=umlLifeline;perimeter=lifelinePerimeter;whiteSpace=wrap;html=1;container=0;dropTarget=0;collapsible=0;recursiveResize=0;outlineConnect=0;portConstraint=eastwest;newEdgeStyle={&quot;edgeStyle&quot;:&quot;elbowEdgeStyle&quot;,&quot;elbow&quot;:&quot;vertical&quot;,&quot;curved&quot;:0,&quot;rounded&quot;:0};" vertex="1" parent="1">
          <mxGeometry x="871" y="440" width="125" height="1190" as="geometry" />
        </mxCell>
        <mxCell id="YY5OX-XtTpoiUtHUCdW3-50" value="Flux&amp;lt;Transactions&amp;gt; list" style="html=1;verticalAlign=bottom;endArrow=block;edgeStyle=elbowEdgeStyle;elbow=vertical;curved=0;rounded=0;" edge="1" parent="1">
          <mxGeometry relative="1" as="geometry">
            <mxPoint x="621.25" y="605" as="sourcePoint" />
            <Array as="points">
              <mxPoint x="578.75" y="605" />
            </Array>
            <mxPoint x="465.25" y="605" as="targetPoint" />
          </mxGeometry>
        </mxCell>
        <mxCell id="YY5OX-XtTpoiUtHUCdW3-51" value="getTransactionGetListOfTransactionsList(list)" style="html=1;verticalAlign=bottom;endArrow=block;edgeStyle=elbowEdgeStyle;elbow=vertical;curved=0;rounded=0;exitX=0.495;exitY=0.262;exitDx=0;exitDy=0;exitPerimeter=0;fontSize=10;" edge="1" parent="1">
          <mxGeometry relative="1" as="geometry">
            <mxPoint x="465" y="627" as="sourcePoint" />
            <Array as="points" />
            <mxPoint x="777" y="627.5" as="targetPoint" />
          </mxGeometry>
        </mxCell>
        <mxCell id="YY5OX-XtTpoiUtHUCdW3-52" value="Flux&amp;lt;GetTransactions&amp;gt; response" style="html=1;verticalAlign=bottom;endArrow=block;edgeStyle=elbowEdgeStyle;elbow=vertical;curved=0;rounded=0;" edge="1" parent="1">
          <mxGeometry relative="1" as="geometry">
            <mxPoint x="777.5" y="649" as="sourcePoint" />
            <Array as="points">
              <mxPoint x="647.5" y="649" />
            </Array>
            <mxPoint x="465.25" y="649" as="targetPoint" />
          </mxGeometry>
        </mxCell>
        <mxCell id="YY5OX-XtTpoiUtHUCdW3-53" value="response" style="html=1;verticalAlign=bottom;endArrow=block;edgeStyle=elbowEdgeStyle;elbow=vertical;curved=0;rounded=0;" edge="1" parent="1">
          <mxGeometry relative="1" as="geometry">
            <mxPoint x="464.75" y="659" as="sourcePoint" />
            <Array as="points">
              <mxPoint x="332.25" y="659" />
            </Array>
            <mxPoint x="310" y="659" as="targetPoint" />
          </mxGeometry>
        </mxCell>
        <mxCell id="YY5OX-XtTpoiUtHUCdW3-54" value="response" style="html=1;verticalAlign=bottom;endArrow=block;edgeStyle=elbowEdgeStyle;elbow=vertical;curved=0;rounded=0;" edge="1" parent="1">
          <mxGeometry relative="1" as="geometry">
            <mxPoint x="309.5" y="667.5" as="sourcePoint" />
            <Array as="points" />
            <mxPoint x="154.00000000000023" y="668" as="targetPoint" />
          </mxGeometry>
        </mxCell>
        <mxCell id="YY5OX-XtTpoiUtHUCdW3-55" value="MongoDB Request" style="html=1;verticalAlign=bottom;endArrow=block;edgeStyle=elbowEdgeStyle;elbow=vertical;curved=0;rounded=0;" edge="1" parent="1">
          <mxGeometry relative="1" as="geometry">
            <mxPoint x="622.25" y="569.8704347826088" as="sourcePoint" />
            <Array as="points" />
            <mxPoint x="933.0000000000005" y="569.5652173913045" as="targetPoint" />
          </mxGeometry>
        </mxCell>
        <mxCell id="YY5OX-XtTpoiUtHUCdW3-56" value="Data Response" style="html=1;verticalAlign=bottom;endArrow=block;edgeStyle=elbowEdgeStyle;elbow=vertical;curved=0;rounded=0;" edge="1" parent="1">
          <mxGeometry relative="1" as="geometry">
            <mxPoint x="935.5" y="592.5700000000002" as="sourcePoint" />
            <Array as="points" />
            <mxPoint x="621.1304347826087" y="592.6521739130435" as="targetPoint" />
          </mxGeometry>
        </mxCell>
        <mxCell id="YY5OX-XtTpoiUtHUCdW3-80" value="List Transactions" style="rounded=0;whiteSpace=wrap;html=1;" vertex="1" parent="1">
          <mxGeometry x="154" y="490" width="780" height="20" as="geometry" />
        </mxCell>
        <mxCell id="YY5OX-XtTpoiUtHUCdW3-84" value="Get Transaction By ID" style="rounded=0;whiteSpace=wrap;html=1;" vertex="1" parent="1">
          <mxGeometry x="154" y="690" width="780" height="20" as="geometry" />
        </mxCell>
        <mxCell id="YY5OX-XtTpoiUtHUCdW3-85" value="" style="html=1;verticalAlign=bottom;startArrow=oval;endArrow=block;startSize=8;edgeStyle=elbowEdgeStyle;elbow=vertical;curved=0;rounded=0;" edge="1" parent="1">
          <mxGeometry relative="1" as="geometry">
            <mxPoint x="154" y="740" as="sourcePoint" />
            <mxPoint x="310.24074074074076" y="740" as="targetPoint" />
            <Array as="points">
              <mxPoint x="244.24074074074076" y="740" />
              <mxPoint x="334.24074074074076" y="686" />
            </Array>
          </mxGeometry>
        </mxCell>
        <mxCell id="YY5OX-XtTpoiUtHUCdW3-86" value="GET:&amp;nbsp; api/v1/transactions/{id}" style="edgeLabel;html=1;align=center;verticalAlign=middle;resizable=0;points=[];" vertex="1" connectable="0" parent="YY5OX-XtTpoiUtHUCdW3-85">
          <mxGeometry x="-0.0028" y="-3" relative="1" as="geometry">
            <mxPoint x="-5" y="-13" as="offset" />
          </mxGeometry>
        </mxCell>
        <mxCell id="YY5OX-XtTpoiUtHUCdW3-87" value="transactionsIdGet()&amp;nbsp;" style="html=1;verticalAlign=bottom;endArrow=block;edgeStyle=elbowEdgeStyle;elbow=vertical;curved=0;rounded=0;exitX=0.495;exitY=0.262;exitDx=0;exitDy=0;exitPerimeter=0;" edge="1" parent="1">
          <mxGeometry x="0.0294" relative="1" as="geometry">
            <mxPoint x="310" y="751.09" as="sourcePoint" />
            <Array as="points" />
            <mxPoint x="465.5" y="751.1669230769231" as="targetPoint" />
            <mxPoint as="offset" />
          </mxGeometry>
        </mxCell>
        <mxCell id="YY5OX-XtTpoiUtHUCdW3-88" value="findById(id)" style="html=1;verticalAlign=bottom;endArrow=block;edgeStyle=elbowEdgeStyle;elbow=vertical;curved=0;rounded=0;exitX=0.495;exitY=0.262;exitDx=0;exitDy=0;exitPerimeter=0;" edge="1" parent="1">
          <mxGeometry relative="1" as="geometry">
            <mxPoint x="466.5" y="758.57" as="sourcePoint" />
            <Array as="points" />
            <mxPoint x="621.5" y="758.57" as="targetPoint" />
          </mxGeometry>
        </mxCell>
        <mxCell id="YY5OX-XtTpoiUtHUCdW3-89" value="Mono&amp;lt;Transactions&amp;gt; entity" style="html=1;verticalAlign=bottom;endArrow=block;edgeStyle=elbowEdgeStyle;elbow=vertical;curved=0;rounded=0;" edge="1" parent="1">
          <mxGeometry x="0.0033" relative="1" as="geometry">
            <mxPoint x="622" y="797.9995652173913" as="sourcePoint" />
            <Array as="points">
              <mxPoint x="579.5" y="797.9995652173913" />
            </Array>
            <mxPoint x="466" y="797.9995652173913" as="targetPoint" />
            <mxPoint as="offset" />
          </mxGeometry>
        </mxCell>
        <mxCell id="YY5OX-XtTpoiUtHUCdW3-90" value="MongoDB Request" style="html=1;verticalAlign=bottom;endArrow=block;edgeStyle=elbowEdgeStyle;elbow=vertical;curved=0;rounded=0;" edge="1" parent="1">
          <mxGeometry relative="1" as="geometry">
            <mxPoint x="622.12" y="767.13" as="sourcePoint" />
            <Array as="points" />
            <mxPoint x="932.87" y="767.2595652173912" as="targetPoint" />
          </mxGeometry>
        </mxCell>
        <mxCell id="YY5OX-XtTpoiUtHUCdW3-91" value="Data Response" style="html=1;verticalAlign=bottom;endArrow=block;edgeStyle=elbowEdgeStyle;elbow=vertical;curved=0;rounded=0;" edge="1" parent="1">
          <mxGeometry relative="1" as="geometry">
            <mxPoint x="934" y="788.9995652173915" as="sourcePoint" />
            <Array as="points" />
            <mxPoint x="619.5" y="789.4295652173913" as="targetPoint" />
          </mxGeometry>
        </mxCell>
        <mxCell id="YY5OX-XtTpoiUtHUCdW3-92" value="getTransactionGetOfTransaction(entity)" style="html=1;verticalAlign=bottom;endArrow=block;edgeStyle=elbowEdgeStyle;elbow=vertical;curved=0;rounded=0;exitX=0.495;exitY=0.262;exitDx=0;exitDy=0;exitPerimeter=0;fontSize=11;" edge="1" parent="1">
          <mxGeometry relative="1" as="geometry">
            <mxPoint x="464.9999999999998" y="820.09" as="sourcePoint" />
            <Array as="points" />
            <mxPoint x="776.9999999999998" y="820.59" as="targetPoint" />
          </mxGeometry>
        </mxCell>
        <mxCell id="YY5OX-XtTpoiUtHUCdW3-93" value="Mono&amp;lt;TransactionGet&amp;gt; response" style="html=1;verticalAlign=bottom;endArrow=block;edgeStyle=elbowEdgeStyle;elbow=vertical;curved=0;rounded=0;" edge="1" parent="1">
          <mxGeometry relative="1" as="geometry">
            <mxPoint x="777.6299999999998" y="843" as="sourcePoint" />
            <Array as="points">
              <mxPoint x="647.6299999999998" y="843" />
            </Array>
            <mxPoint x="465.37999999999977" y="843" as="targetPoint" />
          </mxGeometry>
        </mxCell>
        <mxCell id="YY5OX-XtTpoiUtHUCdW3-94" value="response" style="html=1;verticalAlign=bottom;endArrow=block;edgeStyle=elbowEdgeStyle;elbow=vertical;curved=0;rounded=0;" edge="1" parent="1">
          <mxGeometry relative="1" as="geometry">
            <mxPoint x="465.37999999999977" y="850" as="sourcePoint" />
            <Array as="points">
              <mxPoint x="332.87999999999977" y="850" />
            </Array>
            <mxPoint x="310.62999999999977" y="850" as="targetPoint" />
          </mxGeometry>
        </mxCell>
        <mxCell id="YY5OX-XtTpoiUtHUCdW3-95" value="response" style="html=1;verticalAlign=bottom;endArrow=block;edgeStyle=elbowEdgeStyle;elbow=vertical;curved=0;rounded=0;" edge="1" parent="1">
          <mxGeometry relative="1" as="geometry">
            <mxPoint x="310.12999999999977" y="861.5" as="sourcePoint" />
            <Array as="points" />
            <mxPoint x="154.63" y="862" as="targetPoint" />
          </mxGeometry>
        </mxCell>
        <mxCell id="YY5OX-XtTpoiUtHUCdW3-108" value="Update Transaction By ID" style="rounded=0;whiteSpace=wrap;html=1;" vertex="1" parent="1">
          <mxGeometry x="154" y="884.8199999999999" width="780" height="20" as="geometry" />
        </mxCell>
        <mxCell id="YY5OX-XtTpoiUtHUCdW3-109" value="" style="html=1;verticalAlign=bottom;startArrow=oval;endArrow=block;startSize=8;edgeStyle=elbowEdgeStyle;elbow=vertical;curved=0;rounded=0;" edge="1" parent="1">
          <mxGeometry relative="1" as="geometry">
            <mxPoint x="154" y="934.8199999999999" as="sourcePoint" />
            <mxPoint x="310.24074074074076" y="934.8199999999999" as="targetPoint" />
            <Array as="points">
              <mxPoint x="244.24074074074076" y="934.8199999999999" />
              <mxPoint x="334.24074074074076" y="880.8199999999999" />
            </Array>
          </mxGeometry>
        </mxCell>
        <mxCell id="YY5OX-XtTpoiUtHUCdW3-110" value="PUT:&amp;nbsp; api/v1/transactions" style="edgeLabel;html=1;align=center;verticalAlign=middle;resizable=0;points=[];" vertex="1" connectable="0" parent="YY5OX-XtTpoiUtHUCdW3-109">
          <mxGeometry x="-0.0028" y="-3" relative="1" as="geometry">
            <mxPoint x="-5" y="-13" as="offset" />
          </mxGeometry>
        </mxCell>
        <mxCell id="YY5OX-XtTpoiUtHUCdW3-111" value="transactionsPut()&amp;nbsp;" style="html=1;verticalAlign=bottom;endArrow=block;edgeStyle=elbowEdgeStyle;elbow=vertical;curved=0;rounded=0;exitX=0.495;exitY=0.262;exitDx=0;exitDy=0;exitPerimeter=0;" edge="1" parent="1">
          <mxGeometry x="0.0283" relative="1" as="geometry">
            <mxPoint x="310" y="946.9100000000001" as="sourcePoint" />
            <Array as="points" />
            <mxPoint x="465.5" y="946.986923076923" as="targetPoint" />
            <mxPoint as="offset" />
          </mxGeometry>
        </mxCell>
        <mxCell id="YY5OX-XtTpoiUtHUCdW3-112" value="findById(ID)" style="html=1;verticalAlign=bottom;endArrow=block;edgeStyle=elbowEdgeStyle;elbow=vertical;curved=0;rounded=0;exitX=0.495;exitY=0.262;exitDx=0;exitDy=0;exitPerimeter=0;" edge="1" parent="1">
          <mxGeometry relative="1" as="geometry">
            <mxPoint x="466.5" y="957.3900000000001" as="sourcePoint" />
            <Array as="points" />
            <mxPoint x="621.5" y="957.3900000000001" as="targetPoint" />
          </mxGeometry>
        </mxCell>
        <mxCell id="YY5OX-XtTpoiUtHUCdW3-113" value="Mono&amp;lt;Transactions&amp;gt; previousT" style="html=1;verticalAlign=bottom;endArrow=block;edgeStyle=elbowEdgeStyle;elbow=vertical;curved=0;rounded=0;" edge="1" parent="1">
          <mxGeometry x="0.0033" relative="1" as="geometry">
            <mxPoint x="622" y="1004.8195652173911" as="sourcePoint" />
            <Array as="points">
              <mxPoint x="579.5" y="1004.8195652173911" />
            </Array>
            <mxPoint x="466" y="1004.8195652173911" as="targetPoint" />
            <mxPoint as="offset" />
          </mxGeometry>
        </mxCell>
        <mxCell id="YY5OX-XtTpoiUtHUCdW3-114" value="MongoDB Request" style="html=1;verticalAlign=bottom;endArrow=block;edgeStyle=elbowEdgeStyle;elbow=vertical;curved=0;rounded=0;" edge="1" parent="1">
          <mxGeometry relative="1" as="geometry">
            <mxPoint x="622.12" y="967.95" as="sourcePoint" />
            <Array as="points" />
            <mxPoint x="932.8699999999999" y="968.0795652173913" as="targetPoint" />
          </mxGeometry>
        </mxCell>
        <mxCell id="YY5OX-XtTpoiUtHUCdW3-115" value="Data Response" style="html=1;verticalAlign=bottom;endArrow=block;edgeStyle=elbowEdgeStyle;elbow=vertical;curved=0;rounded=0;" edge="1" parent="1">
          <mxGeometry relative="1" as="geometry">
            <mxPoint x="934" y="988.8195652173915" as="sourcePoint" />
            <Array as="points" />
            <mxPoint x="619.5" y="989.2495652173914" as="targetPoint" />
          </mxGeometry>
        </mxCell>
        <mxCell id="YY5OX-XtTpoiUtHUCdW3-116" value="getTransactionOfTransactionPut(previousT, currentT)" style="html=1;verticalAlign=bottom;endArrow=block;edgeStyle=elbowEdgeStyle;elbow=vertical;curved=0;rounded=0;exitX=0.495;exitY=0.262;exitDx=0;exitDy=0;exitPerimeter=0;fontSize=11;" edge="1" parent="1">
          <mxGeometry relative="1" as="geometry">
            <mxPoint x="464.9999999999998" y="1028.91" as="sourcePoint" />
            <Array as="points" />
            <mxPoint x="776.9999999999998" y="1029.41" as="targetPoint" />
          </mxGeometry>
        </mxCell>
        <mxCell id="YY5OX-XtTpoiUtHUCdW3-117" value="Mono&amp;lt;TransactionGet&amp;gt; entity" style="html=1;verticalAlign=bottom;endArrow=block;edgeStyle=elbowEdgeStyle;elbow=vertical;curved=0;rounded=0;" edge="1" parent="1">
          <mxGeometry relative="1" as="geometry">
            <mxPoint x="777.6299999999997" y="1051.82" as="sourcePoint" />
            <Array as="points">
              <mxPoint x="647.6299999999998" y="1051.82" />
            </Array>
            <mxPoint x="465.37999999999977" y="1051.82" as="targetPoint" />
          </mxGeometry>
        </mxCell>
        <mxCell id="YY5OX-XtTpoiUtHUCdW3-118" value="response" style="html=1;verticalAlign=bottom;endArrow=block;edgeStyle=elbowEdgeStyle;elbow=vertical;curved=0;rounded=0;" edge="1" parent="1">
          <mxGeometry relative="1" as="geometry">
            <mxPoint x="465.37999999999977" y="1149.82" as="sourcePoint" />
            <Array as="points">
              <mxPoint x="332.87999999999977" y="1149.82" />
            </Array>
            <mxPoint x="310.62999999999977" y="1149.82" as="targetPoint" />
          </mxGeometry>
        </mxCell>
        <mxCell id="YY5OX-XtTpoiUtHUCdW3-119" value="response" style="html=1;verticalAlign=bottom;endArrow=block;edgeStyle=elbowEdgeStyle;elbow=vertical;curved=0;rounded=0;" edge="1" parent="1">
          <mxGeometry relative="1" as="geometry">
            <mxPoint x="310.12999999999977" y="1161.32" as="sourcePoint" />
            <Array as="points" />
            <mxPoint x="154.63" y="1161.82" as="targetPoint" />
          </mxGeometry>
        </mxCell>
        <mxCell id="YY5OX-XtTpoiUtHUCdW3-120" value="save(entity)" style="html=1;verticalAlign=bottom;endArrow=block;edgeStyle=elbowEdgeStyle;elbow=horizontal;curved=0;rounded=0;exitX=0.495;exitY=0.262;exitDx=0;exitDy=0;exitPerimeter=0;" edge="1" parent="1">
          <mxGeometry relative="1" as="geometry">
            <mxPoint x="466.5" y="1073.9099999999999" as="sourcePoint" />
            <Array as="points" />
            <mxPoint x="621.5" y="1073.9099999999999" as="targetPoint" />
          </mxGeometry>
        </mxCell>
        <mxCell id="YY5OX-XtTpoiUtHUCdW3-121" value="getTransactionGetOfTransaction(previousT, currentT)" style="html=1;verticalAlign=bottom;endArrow=block;edgeStyle=elbowEdgeStyle;elbow=vertical;curved=0;rounded=0;exitX=0.495;exitY=0.262;exitDx=0;exitDy=0;exitPerimeter=0;fontSize=11;" edge="1" parent="1">
          <mxGeometry relative="1" as="geometry">
            <mxPoint x="465.5" y="1119.82" as="sourcePoint" />
            <Array as="points" />
            <mxPoint x="777.5" y="1120.32" as="targetPoint" />
          </mxGeometry>
        </mxCell>
        <mxCell id="YY5OX-XtTpoiUtHUCdW3-122" value="Mono&amp;lt;Transactions&amp;gt; entity" style="html=1;verticalAlign=bottom;endArrow=block;edgeStyle=elbowEdgeStyle;elbow=vertical;curved=0;rounded=0;" edge="1" parent="1">
          <mxGeometry x="0.0033" relative="1" as="geometry">
            <mxPoint x="622" y="1096" as="sourcePoint" />
            <Array as="points">
              <mxPoint x="579.5" y="1096" />
            </Array>
            <mxPoint x="466" y="1096" as="targetPoint" />
            <mxPoint as="offset" />
          </mxGeometry>
        </mxCell>
        <mxCell id="YY5OX-XtTpoiUtHUCdW3-123" value="Mono&amp;lt;TransactionGet&amp;gt; entity" style="html=1;verticalAlign=bottom;endArrow=block;edgeStyle=elbowEdgeStyle;elbow=vertical;curved=0;rounded=0;" edge="1" parent="1">
          <mxGeometry relative="1" as="geometry">
            <mxPoint x="777.6199999999999" y="1140" as="sourcePoint" />
            <Array as="points">
              <mxPoint x="647.62" y="1140" />
            </Array>
            <mxPoint x="465.37" y="1140" as="targetPoint" />
          </mxGeometry>
        </mxCell>
        <mxCell id="YY5OX-XtTpoiUtHUCdW3-124" value="PostTransaction" style="rounded=0;whiteSpace=wrap;html=1;" vertex="1" parent="1">
          <mxGeometry x="154" y="1180" width="780" height="20" as="geometry" />
        </mxCell>
        <mxCell id="YY5OX-XtTpoiUtHUCdW3-125" value="" style="html=1;verticalAlign=bottom;startArrow=oval;endArrow=block;startSize=8;edgeStyle=elbowEdgeStyle;elbow=vertical;curved=0;rounded=0;" edge="1" parent="1">
          <mxGeometry relative="1" as="geometry">
            <mxPoint x="154" y="1230" as="sourcePoint" />
            <mxPoint x="310.24074074074076" y="1230" as="targetPoint" />
            <Array as="points">
              <mxPoint x="244.24074074074076" y="1230" />
              <mxPoint x="334.24074074074076" y="1176" />
            </Array>
          </mxGeometry>
        </mxCell>
        <mxCell id="YY5OX-XtTpoiUtHUCdW3-126" value="POST:&amp;nbsp; api/v1/transactions" style="edgeLabel;html=1;align=center;verticalAlign=middle;resizable=0;points=[];" vertex="1" connectable="0" parent="YY5OX-XtTpoiUtHUCdW3-125">
          <mxGeometry x="-0.0028" y="-3" relative="1" as="geometry">
            <mxPoint x="-5" y="-13" as="offset" />
          </mxGeometry>
        </mxCell>
        <mxCell id="YY5OX-XtTpoiUtHUCdW3-127" value="transactionsPost()&amp;nbsp;" style="html=1;verticalAlign=bottom;endArrow=block;edgeStyle=elbowEdgeStyle;elbow=vertical;curved=0;rounded=0;exitX=0.495;exitY=0.262;exitDx=0;exitDy=0;exitPerimeter=0;" edge="1" parent="1">
          <mxGeometry x="0.0294" relative="1" as="geometry">
            <mxPoint x="310" y="1239.0900000000001" as="sourcePoint" />
            <Array as="points" />
            <mxPoint x="465.5" y="1239.166923076923" as="targetPoint" />
            <mxPoint as="offset" />
          </mxGeometry>
        </mxCell>
        <mxCell id="YY5OX-XtTpoiUtHUCdW3-128" value="save(entity)" style="html=1;verticalAlign=bottom;endArrow=block;edgeStyle=elbowEdgeStyle;elbow=vertical;curved=0;rounded=0;exitX=0.495;exitY=0.262;exitDx=0;exitDy=0;exitPerimeter=0;" edge="1" parent="1">
          <mxGeometry relative="1" as="geometry">
            <mxPoint x="465.87" y="1298" as="sourcePoint" />
            <Array as="points" />
            <mxPoint x="620.87" y="1298" as="targetPoint" />
          </mxGeometry>
        </mxCell>
        <mxCell id="YY5OX-XtTpoiUtHUCdW3-129" value="Mono&amp;lt;Transactions&amp;gt; entity" style="html=1;verticalAlign=bottom;endArrow=block;edgeStyle=elbowEdgeStyle;elbow=vertical;curved=0;rounded=0;" edge="1" parent="1">
          <mxGeometry x="0.0033" relative="1" as="geometry">
            <mxPoint x="621.37" y="1337.429565217391" as="sourcePoint" />
            <Array as="points">
              <mxPoint x="578.87" y="1337.429565217391" />
            </Array>
            <mxPoint x="465.37" y="1337.429565217391" as="targetPoint" />
            <mxPoint as="offset" />
          </mxGeometry>
        </mxCell>
        <mxCell id="YY5OX-XtTpoiUtHUCdW3-130" value="MongoDB Request" style="html=1;verticalAlign=bottom;endArrow=block;edgeStyle=elbowEdgeStyle;elbow=vertical;curved=0;rounded=0;" edge="1" parent="1">
          <mxGeometry relative="1" as="geometry">
            <mxPoint x="621.4899999999999" y="1306.56" as="sourcePoint" />
            <Array as="points" />
            <mxPoint x="932.2399999999999" y="1306.6895652173912" as="targetPoint" />
          </mxGeometry>
        </mxCell>
        <mxCell id="YY5OX-XtTpoiUtHUCdW3-131" value="Data Response" style="html=1;verticalAlign=bottom;endArrow=block;edgeStyle=elbowEdgeStyle;elbow=vertical;curved=0;rounded=0;" edge="1" parent="1">
          <mxGeometry relative="1" as="geometry">
            <mxPoint x="933.37" y="1328.4295652173914" as="sourcePoint" />
            <Array as="points" />
            <mxPoint x="618.87" y="1328.8595652173913" as="targetPoint" />
          </mxGeometry>
        </mxCell>
        <mxCell id="YY5OX-XtTpoiUtHUCdW3-132" value="getTransactionGetOfTransaction(entity)" style="html=1;verticalAlign=bottom;endArrow=block;edgeStyle=elbowEdgeStyle;elbow=vertical;curved=0;rounded=0;exitX=0.495;exitY=0.262;exitDx=0;exitDy=0;exitPerimeter=0;fontSize=11;" edge="1" parent="1">
          <mxGeometry relative="1" as="geometry">
            <mxPoint x="464.3699999999998" y="1359.52" as="sourcePoint" />
            <Array as="points" />
            <mxPoint x="776.3699999999998" y="1360.02" as="targetPoint" />
          </mxGeometry>
        </mxCell>
        <mxCell id="YY5OX-XtTpoiUtHUCdW3-133" value="Mono&amp;lt;TransactionGet&amp;gt; response" style="html=1;verticalAlign=bottom;endArrow=block;edgeStyle=elbowEdgeStyle;elbow=vertical;curved=0;rounded=0;" edge="1" parent="1">
          <mxGeometry relative="1" as="geometry">
            <mxPoint x="776.9999999999997" y="1382.4299999999998" as="sourcePoint" />
            <Array as="points">
              <mxPoint x="646.9999999999997" y="1382.4299999999998" />
            </Array>
            <mxPoint x="464.7499999999998" y="1382.4299999999998" as="targetPoint" />
          </mxGeometry>
        </mxCell>
        <mxCell id="YY5OX-XtTpoiUtHUCdW3-134" value="response" style="html=1;verticalAlign=bottom;endArrow=block;edgeStyle=elbowEdgeStyle;elbow=vertical;curved=0;rounded=0;" edge="1" parent="1">
          <mxGeometry relative="1" as="geometry">
            <mxPoint x="464.7499999999998" y="1389.4299999999998" as="sourcePoint" />
            <Array as="points">
              <mxPoint x="332.2499999999998" y="1389.4299999999998" />
            </Array>
            <mxPoint x="309.9999999999998" y="1389.4299999999998" as="targetPoint" />
          </mxGeometry>
        </mxCell>
        <mxCell id="YY5OX-XtTpoiUtHUCdW3-135" value="response" style="html=1;verticalAlign=bottom;endArrow=block;edgeStyle=elbowEdgeStyle;elbow=vertical;curved=0;rounded=0;" edge="1" parent="1">
          <mxGeometry relative="1" as="geometry">
            <mxPoint x="309.4999999999998" y="1400.9299999999998" as="sourcePoint" />
            <Array as="points" />
            <mxPoint x="154" y="1401.4299999999998" as="targetPoint" />
          </mxGeometry>
        </mxCell>
        <mxCell id="YY5OX-XtTpoiUtHUCdW3-140" value="getTransactionOfTransactionPost(entity)" style="html=1;verticalAlign=bottom;endArrow=block;edgeStyle=elbowEdgeStyle;elbow=vertical;curved=0;rounded=0;exitX=0.495;exitY=0.262;exitDx=0;exitDy=0;exitPerimeter=0;fontSize=11;" edge="1" parent="1">
          <mxGeometry relative="1" as="geometry">
            <mxPoint x="465.18" y="1249" as="sourcePoint" />
            <Array as="points" />
            <mxPoint x="777.1800000000001" y="1249.5" as="targetPoint" />
          </mxGeometry>
        </mxCell>
        <mxCell id="YY5OX-XtTpoiUtHUCdW3-141" value="Mono&amp;lt;Transaction&amp;gt; response" style="html=1;verticalAlign=bottom;endArrow=block;edgeStyle=elbowEdgeStyle;elbow=vertical;curved=0;rounded=0;" edge="1" parent="1">
          <mxGeometry relative="1" as="geometry">
            <mxPoint x="777.81" y="1272.9099999999999" as="sourcePoint" />
            <Array as="points">
              <mxPoint x="647.81" y="1272.9099999999999" />
            </Array>
            <mxPoint x="465.56" y="1272.9099999999999" as="targetPoint" />
          </mxGeometry>
        </mxCell>
        <mxCell id="YY5OX-XtTpoiUtHUCdW3-156" value="Delete Transaction By Id" style="rounded=0;whiteSpace=wrap;html=1;" vertex="1" parent="1">
          <mxGeometry x="154" y="1420" width="780" height="20" as="geometry" />
        </mxCell>
        <mxCell id="YY5OX-XtTpoiUtHUCdW3-157" value="" style="html=1;verticalAlign=bottom;startArrow=oval;endArrow=block;startSize=8;edgeStyle=elbowEdgeStyle;elbow=vertical;curved=0;rounded=0;" edge="1" parent="1">
          <mxGeometry relative="1" as="geometry">
            <mxPoint x="154" y="1470" as="sourcePoint" />
            <mxPoint x="310.2407407407409" y="1470" as="targetPoint" />
            <Array as="points">
              <mxPoint x="244.24074074074088" y="1470" />
              <mxPoint x="334.2407407407409" y="1416" />
            </Array>
          </mxGeometry>
        </mxCell>
        <mxCell id="YY5OX-XtTpoiUtHUCdW3-158" value="DELETE:&amp;nbsp; api/v1/transactions/{ID}" style="edgeLabel;html=1;align=center;verticalAlign=middle;resizable=0;points=[];" vertex="1" connectable="0" parent="YY5OX-XtTpoiUtHUCdW3-157">
          <mxGeometry x="-0.0028" y="-3" relative="1" as="geometry">
            <mxPoint x="-5" y="-13" as="offset" />
          </mxGeometry>
        </mxCell>
        <mxCell id="YY5OX-XtTpoiUtHUCdW3-159" value="transactionsIdDelete()" style="html=1;verticalAlign=bottom;endArrow=block;edgeStyle=elbowEdgeStyle;elbow=vertical;curved=0;rounded=0;exitX=0.495;exitY=0.262;exitDx=0;exitDy=0;exitPerimeter=0;" edge="1" parent="1">
          <mxGeometry x="0.0294" relative="1" as="geometry">
            <mxPoint x="310" y="1479.0900000000001" as="sourcePoint" />
            <Array as="points" />
            <mxPoint x="465.5" y="1479.166923076923" as="targetPoint" />
            <mxPoint as="offset" />
          </mxGeometry>
        </mxCell>
        <mxCell id="YY5OX-XtTpoiUtHUCdW3-160" value="deleteById(entity)" style="html=1;verticalAlign=bottom;endArrow=block;edgeStyle=elbowEdgeStyle;elbow=vertical;curved=0;rounded=0;exitX=0.495;exitY=0.262;exitDx=0;exitDy=0;exitPerimeter=0;" edge="1" parent="1">
          <mxGeometry relative="1" as="geometry">
            <mxPoint x="465.8699999999999" y="1489.26" as="sourcePoint" />
            <Array as="points" />
            <mxPoint x="620.8699999999999" y="1489.26" as="targetPoint" />
          </mxGeometry>
        </mxCell>
        <mxCell id="YY5OX-XtTpoiUtHUCdW3-161" value="Mono&amp;lt;String&amp;gt; response" style="html=1;verticalAlign=bottom;endArrow=block;edgeStyle=elbowEdgeStyle;elbow=vertical;curved=0;rounded=0;" edge="1" parent="1">
          <mxGeometry x="0.0033" relative="1" as="geometry">
            <mxPoint x="621.3699999999999" y="1528.689565217391" as="sourcePoint" />
            <Array as="points">
              <mxPoint x="578.8699999999999" y="1528.689565217391" />
            </Array>
            <mxPoint x="465.3699999999999" y="1528.689565217391" as="targetPoint" />
            <mxPoint as="offset" />
          </mxGeometry>
        </mxCell>
        <mxCell id="YY5OX-XtTpoiUtHUCdW3-162" value="MongoDB Request" style="html=1;verticalAlign=bottom;endArrow=block;edgeStyle=elbowEdgeStyle;elbow=vertical;curved=0;rounded=0;" edge="1" parent="1">
          <mxGeometry relative="1" as="geometry">
            <mxPoint x="621.4899999999998" y="1497.82" as="sourcePoint" />
            <Array as="points" />
            <mxPoint x="932.2399999999998" y="1497.9495652173912" as="targetPoint" />
          </mxGeometry>
        </mxCell>
        <mxCell id="YY5OX-XtTpoiUtHUCdW3-163" value="Data Response" style="html=1;verticalAlign=bottom;endArrow=block;edgeStyle=elbowEdgeStyle;elbow=vertical;curved=0;rounded=0;" edge="1" parent="1">
          <mxGeometry relative="1" as="geometry">
            <mxPoint x="933.3699999999999" y="1519.6895652173914" as="sourcePoint" />
            <Array as="points" />
            <mxPoint x="618.8699999999999" y="1520.1195652173913" as="targetPoint" />
          </mxGeometry>
        </mxCell>
        <mxCell id="YY5OX-XtTpoiUtHUCdW3-166" value="response" style="html=1;verticalAlign=bottom;endArrow=block;edgeStyle=elbowEdgeStyle;elbow=vertical;curved=0;rounded=0;" edge="1" parent="1">
          <mxGeometry relative="1" as="geometry">
            <mxPoint x="465.37999999999977" y="1539.9999999999998" as="sourcePoint" />
            <Array as="points">
              <mxPoint x="332.87999999999977" y="1539.9999999999998" />
            </Array>
            <mxPoint x="310.62999999999977" y="1539.9999999999998" as="targetPoint" />
          </mxGeometry>
        </mxCell>
        <mxCell id="YY5OX-XtTpoiUtHUCdW3-167" value="response" style="html=1;verticalAlign=bottom;endArrow=block;edgeStyle=elbowEdgeStyle;elbow=vertical;curved=0;rounded=0;" edge="1" parent="1">
          <mxGeometry relative="1" as="geometry">
            <mxPoint x="310.12999999999977" y="1551.4999999999998" as="sourcePoint" />
            <Array as="points" />
            <mxPoint x="154.63" y="1551.9999999999998" as="targetPoint" />
          </mxGeometry>
        </mxCell>
      </root>
    </mxGraphModel>
  </diagram>
</mxfile>
